<svg width="285" height="52" viewBox="0 0 285 52" fill="none" xmlns="http://www.w3.org/2000/svg">
<path d="M60.7021 15.8V34H64.6541H75.6522V30.386H64.6541V26.694H75.6522V23.132H64.6541V19.388H75.6522V15.8H60.7021Z" fill="black"/>
<path d="M94.2385 19.414H89.5585L86.1785 23.756L82.7985 19.414H78.1445L83.8385 26.72L78.1445 34H82.7985L86.1785 29.684L89.5585 34H94.2385L88.5185 26.72L94.2385 19.414Z" fill="black"/>
<path d="M105.656 28.54C105.37 29.554 104.46 30.464 101.964 30.464C99.3904 30.464 98.0384 29.294 98.0384 26.694C98.0384 24.224 99.3904 22.95 101.964 22.95C104.382 22.95 105.344 23.782 105.682 24.874H109.556C109.218 21.416 106.15 19.388 101.964 19.388C97.6744 19.388 94.1904 21.988 94.1904 26.694C94.1904 31.53 97.6744 34 101.964 34C106.15 34 109.244 32.05 109.556 28.54H105.656Z" fill="black"/>
<path d="M115.33 34V15.306H111.404V34H115.33Z" fill="black"/>
<path d="M129.164 19.414V26.46C129.164 28.436 128.644 30.62 125.238 30.62C121.442 30.62 121.702 27.864 121.702 26.72V19.414H117.776V26.72C117.776 28.852 117.932 34 124.094 34C126.72 34 128.046 33.168 128.982 31.868H129.164V34H133.116V19.414H129.164Z" fill="black"/>
<path d="M142.814 25.16L142.476 25.134C139.928 24.744 139.486 24.38 139.486 23.73C139.486 23.288 139.954 22.482 142.164 22.482C144.452 22.482 145.44 23.106 145.44 24.25V24.38H149.47V24.25C149.47 22.014 148.196 19.336 142.164 19.336C136.548 19.336 135.378 21.754 135.378 23.782C135.378 26.694 137.978 27.63 142.164 28.176C142.372 28.202 142.58 28.228 142.788 28.254C144.374 28.436 145.778 28.644 145.778 29.736C145.778 30.698 144.27 30.906 142.684 30.906C140.058 30.906 139.122 30.334 139.122 29.086V28.956H135.066V29.242C135.04 29.996 135.04 31.218 136.054 32.232C137.224 33.402 139.486 34 142.788 34C147.26 34 149.86 33.298 149.86 29.684C149.86 26.226 146.116 25.654 142.814 25.16Z" fill="black"/>
<path d="M155.978 34V19.518H152.052V34H155.978ZM155.978 18.478V14.942H152.052V18.478H155.978Z" fill="black"/>
<path d="M170.359 19.518L166.095 30.49H165.705L161.441 19.518H157.281L162.897 34H168.929L174.545 19.518H170.359Z" fill="black"/>
<path d="M190.168 27.63H190.324C190.532 25.628 190.272 22.56 187.464 20.636V20.662C186.242 19.804 184.578 19.284 182.524 19.284C177.61 19.284 174.698 21.884 174.698 26.642C174.698 31.504 177.532 34 182.524 34C187.308 34 189.856 32.076 190.246 28.93H186.424C186.06 29.892 184.89 30.542 182.524 30.542C179.976 30.542 178.806 29.58 178.52 27.63H190.168ZM182.524 22.742C185.332 22.742 186.06 23.938 186.372 25.03H178.676C179.144 23.548 180.34 22.742 182.524 22.742Z" fill="black"/>
<path d="M206.404 24.692C207.548 24.068 208.172 22.976 208.172 21C208.172 17.334 205.728 15.8 201.958 15.8C200.944 15.8 200.216 15.8 199.696 15.8H192.702V34C192.702 34 201.854 34 203.83 34C206.612 34 208.952 32.336 208.952 28.826C208.952 26.434 208.042 25.264 206.404 24.692ZM200.814 19.414C202.738 19.414 204.298 19.518 204.298 21.338C204.298 23.158 202.816 23.236 200.996 23.236C199.982 23.236 198.11 23.236 196.654 23.236V19.414C197.2 19.414 199.8 19.414 200.814 19.414ZM201.646 30.412C200.32 30.412 201.516 30.412 199.956 30.412H196.654V26.408C197.72 26.408 200.918 26.408 202.166 26.408C203.986 26.408 205.078 26.694 205.078 28.41C205.078 30.282 203.596 30.412 201.646 30.412Z" fill="url(#paint0_linear_1550_8256)"/>
<path d="M215.34 34V15.306H211.414V34H215.34Z" fill="url(#paint1_linear_1550_8256)"/>
<path d="M225.72 19.154C221.3 19.154 217.608 21.572 217.608 26.59C217.608 31.634 221.3 34 225.72 34C230.166 34 233.858 31.712 233.858 26.59C233.858 21.52 230.166 19.154 225.72 19.154ZM225.72 30.412C223.25 30.412 221.482 29.32 221.482 26.59C221.482 23.834 223.25 22.768 225.72 22.768C228.216 22.768 229.984 23.886 229.984 26.59C229.984 29.216 228.216 30.412 225.72 30.412Z" fill="url(#paint2_linear_1550_8256)"/>
<path d="M247.532 28.54C247.246 29.554 246.336 30.464 243.84 30.464C241.266 30.464 239.914 29.294 239.914 26.694C239.914 24.224 241.266 22.95 243.84 22.95C246.258 22.95 247.22 23.782 247.558 24.874H251.432C251.094 21.416 248.026 19.388 243.84 19.388C239.55 19.388 236.066 21.988 236.066 26.694C236.066 31.53 239.55 34 243.84 34C248.026 34 251.12 32.05 251.432 28.54H247.532Z" fill="url(#paint3_linear_1550_8256)"/>
<path d="M269.317 19.414H263.831L257.409 25.758V15.228H253.483V33.974H257.409V31.14L260.243 28.332L264.351 34H269.265L263.129 25.524L269.317 19.414Z" fill="url(#paint4_linear_1550_8256)"/>
<path d="M277.556 25.16L277.218 25.134C274.67 24.744 274.228 24.38 274.228 23.73C274.228 23.288 274.696 22.482 276.906 22.482C279.194 22.482 280.182 23.106 280.182 24.25V24.38H284.212V24.25C284.212 22.014 282.938 19.336 276.906 19.336C271.29 19.336 270.12 21.754 270.12 23.782C270.12 26.694 272.72 27.63 276.906 28.176C277.114 28.202 277.322 28.228 277.53 28.254C279.116 28.436 280.52 28.644 280.52 29.736C280.52 30.698 279.012 30.906 277.426 30.906C274.8 30.906 273.864 30.334 273.864 29.086V28.956H269.808V29.242C269.782 29.996 269.782 31.218 270.796 32.232C271.966 33.402 274.228 34 277.53 34C282.002 34 284.602 33.298 284.602 29.684C284.602 26.226 280.858 25.654 277.556 25.16Z" fill="url(#paint5_linear_1550_8256)"/>
<path fill-rule="evenodd" clip-rule="evenodd" d="M49 26C49 38.7025 38.7025 49 26 49C13.2975 49 3 38.7025 3 26C3 13.2975 13.2975 3 26 3C38.7025 3 49 13.2975 49 26ZM52 26C52 40.3594 40.3594 52 26 52C11.6406 52 0 40.3594 0 26C0 11.6406 11.6406 0 26 0C40.3594 0 52 11.6406 52 26ZM16.5351 19.5295C14.3765 21.6881 14.3765 25.1894 16.5351 27.348L24.0647 19.8185C26.2233 17.6599 26.2233 14.1586 24.0647 12L16.5351 19.5295ZM27.8209 38.6338C25.6624 36.4752 25.6624 32.9739 27.8209 30.8153L35.3505 23.2858C37.5091 25.4444 37.5091 28.9457 35.3505 31.1043L27.8209 38.6338ZM16.7221 38.7868L20.1214 35.3874L26.8011 28.7077C28.9597 26.5491 28.9597 23.0478 26.8011 20.8892L16.7221 30.9683C14.5635 33.1269 14.5635 36.6282 16.7221 38.7868Z" fill="url(#paint6_linear_1550_8256)"/>
<defs>
<linearGradient id="paint0_linear_1550_8256" x1="277.5" y1="25" x2="266.552" y2="58.8912" gradientUnits="userSpaceOnUse">
<stop stop-color="#FFC0B3"/>
<stop offset="1" stop-color="#9719DA"/>
</linearGradient>
<linearGradient id="paint1_linear_1550_8256" x1="277.5" y1="25" x2="266.552" y2="58.8912" gradientUnits="userSpaceOnUse">
<stop stop-color="#FFC0B3"/>
<stop offset="1" stop-color="#9719DA"/>
</linearGradient>
<linearGradient id="paint2_linear_1550_8256" x1="277.5" y1="25" x2="266.552" y2="58.8912" gradientUnits="userSpaceOnUse">
<stop stop-color="#FFC0B3"/>
<stop offset="1" stop-color="#9719DA"/>
</linearGradient>
<linearGradient id="paint3_linear_1550_8256" x1="277.5" y1="25" x2="266.552" y2="58.8912" gradientUnits="userSpaceOnUse">
<stop stop-color="#FFC0B3"/>
<stop offset="1" stop-color="#9719DA"/>
</linearGradient>
<linearGradient id="paint4_linear_1550_8256" x1="277.5" y1="25" x2="266.552" y2="58.8912" gradientUnits="userSpaceOnUse">
<stop stop-color="#FFC0B3"/>
<stop offset="1" stop-color="#9719DA"/>
</linearGradient>
<linearGradient id="paint5_linear_1550_8256" x1="277.5" y1="25" x2="266.552" y2="58.8912" gradientUnits="userSpaceOnUse">
<stop stop-color="#FFC0B3"/>
<stop offset="1" stop-color="#9719DA"/>
</linearGradient>
<linearGradient id="paint6_linear_1550_8256" x1="45.5" y1="9" x2="5" y2="40.5" gradientUnits="userSpaceOnUse">
<stop stop-color="#FFC0B3"/>
<stop offset="1" stop-color="#9719DA"/>
</linearGradient>
</defs>
</svg>
